<?xml version="1.0" encoding="utf-8"?>
<!-- Generator: Adobe Illustrator 19.2.1, SVG Export Plug-In . SVG Version: 6.00 Build 0)  -->
<svg version="1.1" id="Capa_2" xmlns="http://www.w3.org/2000/svg" xmlns:xlink="http://www.w3.org/1999/xlink" x="0px" y="0px"
	 viewBox="0 0 238.8 134.7" style="enable-background:new 0 0 238.8 134.7;" xml:space="preserve">
<style type="text/css">
	.st0{fill:#FFFFFF;}
</style>
<g>
	<path class="st0" d="M218.1,40.5c-9.5,0-17.5,6.5-20,15.2l-27-1V33.1l17.9-9.3c2.7,3.9,7.3,6.5,12.4,6.5c8.4,0,15.2-6.8,15.2-15.2
		s-6.8-15.2-15.2-15.2s-15.2,6.8-15.2,15.2c0,1.6,0.2,3.1,0.7,4.6L171,27.9V24c0-1.9-1.6-3.5-3.5-3.5H79.9c-1.9,0-3.5,1.6-3.5,3.5
		v22.5l-12-11.6c1.9-3.2,3.1-7,3.1-11.1c0-11.9-9.7-21.6-21.6-21.6S24.3,12,24.3,23.9S34,45.5,45.9,45.5c6.2,0,11.8-2.6,15.7-6.8
		l14.9,14.2v7.5l-35.8,19C37.4,71.9,30,66.7,21.3,66.7C9.5,66.6,0,76.1,0,87.8S9.5,109,21.2,109s21.2-9.5,21.2-21.2
		c0-1.4-0.1-2.7-0.4-4l34.4-18.2V83c0,1.2,0.6,2.2,1.5,2.9l-8.8,11.9c-1.6-0.7-3.5-1.1-5.4-1.1c-7.4,0-13.4,6-13.4,13.4
		s6,13.4,13.4,13.4s13.4-6,13.4-13.4c0-3.8-1.6-7.3-4.2-9.7l10.3-13.8h73l13,12.8c-3.4,3.8-5.5,8.8-5.5,14.3
		c0,11.8,9.5,21.3,21.3,21.3s21.3-9.5,21.3-21.3s-9.5-21.3-21.3-21.3c-4.6,0-8.8,1.5-12.3,3.9l-9.9-9.7h4.9c1.9,0,3.5-1.6,3.5-3.5
		V59.3l26.3,1c0,0.3,0,0.6,0,0.9c0,11.4,9.3,20.7,20.7,20.7s20.7-9.3,20.7-20.7C238.8,49.8,229.6,40.5,218.1,40.5z M164.2,79.4H83.3
		v-52h80.9L164.2,79.4L164.2,79.4z"/>
	<path class="st0" d="M140.4,91.1H104c-1.3,0-2.3,1-2.3,2.3s1,2.3,2.3,2.3h36.4c1.3,0,2.3-1,2.3-2.3
		C142.7,92.2,141.7,91.1,140.4,91.1z"/>
	<path class="st0" d="M99.8,62.2c-1.4,6-10.6,0-10.6,0v8.6c0,0,5.3,2,7.6,2s12.1-0.3,12.1-11S95.4,49.5,96.6,44.2c1.2-5.2,10,0,10,0
		v-8.4c-9-4.1-18.4-2-18.4,8.3S101.2,56.2,99.8,62.2z"/>
	<rect x="115.3" y="35.9" class="st0" width="8.5" height="36.4"/>
	<polygon class="st0" points="141.3,35.5 132.9,35.9 132.9,72.3 141.3,72.3 	"/>
	<path class="st0" d="M158.8,71.9c0,0,0.2-37.8,0-37.7s-8.5,0.8-8.5,0.8l0.2,36.8L158.8,71.9L158.8,71.9z"/>
</g>
</svg>
